<svg xmlns="http://www.w3.org/2000/svg" version="1.1" xmlns:xlink="http://www.w3.org/1999/xlink" xmlns:svgjs="http://svgjs.dev/svgjs" width="1500" height="1500" viewBox="0 0 1500 1500"><rect width="1500" height="1500" fill="#000000"></rect><g transform="matrix(0.6666666666666666,0,0,0.6666666666666666,248.76890756302515,603.6060128205129)"><svg viewBox="0 0 357 104" data-background-color="#8abcd7" preserveAspectRatio="xMidYMid meet" height="436" width="1500" xmlns="http://www.w3.org/2000/svg" xmlns:xlink="http://www.w3.org/1999/xlink"><g id="tight-bounds" transform="matrix(1,0,0,1,0.43950000000003797,0.3795000000000073)"><svg viewBox="0 0 356.12052 103.24070694805195" height="103.24070694805195" width="356.12052"><g><svg viewBox="0 0 356.12052 103.24070694805195" height="103.24070694805195" width="356.12052"><g><svg viewBox="0 0 356.12052 103.24070694805195" height="103.24070694805195" width="356.12052"><g><path d="M0 103.241v-103.241h356.121v103.241z" fill="#ffffff" stroke="transparent" stroke-width="0" rx="0%" data-fill-palette-color="tertiary"></path><path d="M3.283 99.957v-96.674h349.554v96.674z" fill="#000000" stroke="transparent" stroke-width="0" rx="0%" data-fill-palette-color="quaternary"></path><path d="M9.85 93.391v-83.541h336.421v83.541z" fill="#ffffff" stroke="transparent" stroke-width="0" data-fill-palette-color="tertiary"></path></g><g transform="matrix(1,0,0,1,19.69974,19.69974)" id="textblocktransform"><svg viewBox="0 0 316.72104 63.84122694805195" height="63.84122694805195" width="316.72104" id="textblock"><g><svg viewBox="0 0 316.72104 63.84122694805195" height="63.84122694805195" width="316.72104"><g transform="matrix(1,0,0,1,0,0)"><svg width="316.72104" viewBox="3.85 -36.75 184.78 37.25" height="63.84122694805195" data-palette-color="#8abcd7"><path d="M3.85 0L3.85-36.75 19.95-36.75 19.95-31.85 9.4-31.85 9.4-21.7 17.9-21.7 17.9-16.7 9.4-16.7 9.4-4.95 21.6-4.95 21.6 0 3.85 0ZM35.35 0L23.25-22.95 29.4-22.95 34.35-12.6 35.95-8.45 37.55-12.6 42.45-22.95 48.45-22.95 36.4 0 35.35 0ZM62.14 0.5Q58.05 0.5 55.3-1.13 52.55-2.75 51.24-5.48 49.95-8.2 49.95-11.45L49.95-11.45Q49.95-15.1 51.47-17.85 52.99-20.6 55.7-22.08 58.39-23.55 61.8-23.55L61.8-23.55Q67.09-23.55 69.67-20.63 72.25-17.7 72.25-12.4L72.25-12.4Q72.25-11.05 72.09-9.6L72.09-9.6 55.59-9.6Q56.14-6.55 57.77-5.2 59.39-3.85 62.3-3.85L62.3-3.85Q64.69-3.85 66.25-4.25 67.8-4.65 69.09-5.35L69.09-5.35 70.75-1.5Q69.5-0.7 67.34-0.1 65.19 0.5 62.14 0.5L62.14 0.5ZM55.59-13.35L67-13.35Q67.05-16.45 65.64-17.73 64.25-19 61.64-19L61.64-19Q56.39-19 55.59-13.35L55.59-13.35ZM77.74 0L77.74-22.95 83.14-22.95 83.14-18.45Q83.94-20.75 85.74-22.15 87.54-23.55 89.84-23.55L89.84-23.55Q91.44-23.55 92.04-23.25L92.04-23.25 91.29-17.8Q90.84-18.1 89.34-18.1L89.34-18.1Q86.99-18.1 85.07-16.6 83.14-15.1 83.14-11.8L83.14-11.8 83.14 0 77.74 0ZM109.44 0.5Q106.64 0.5 104.42-0.88 102.19-2.25 101.34-4.05L101.34-4.05 101.24 0 96.04 0 96.04-36.75 101.34-36.75 101.34-22.6 101.09-18.7Q101.94-20.7 104.42-22.13 106.89-23.55 109.79-23.55L109.79-23.55Q113.19-23.55 115.72-22.03 118.24-20.5 119.59-17.78 120.94-15.05 120.94-11.45L120.94-11.45Q120.94-7.8 119.37-5.1 117.79-2.4 115.17-0.95 112.54 0.5 109.44 0.5L109.44 0.5ZM108.54-4Q111.79-4 113.54-6.08 115.29-8.15 115.29-11.45L115.29-11.45Q115.29-14.8 113.57-16.88 111.84-18.95 108.54-18.95L108.54-18.95Q105.69-18.95 103.74-16.98 101.79-15 101.79-11.8L101.79-11.8 101.79-11.45Q101.79-9.3 102.72-7.6 103.64-5.9 105.17-4.95 106.69-4 108.54-4L108.54-4ZM137.54 0.5Q133.44 0.5 130.69-1.13 127.94-2.75 126.64-5.48 125.34-8.2 125.34-11.45L125.34-11.45Q125.34-15.1 126.86-17.85 128.39-20.6 131.09-22.08 133.79-23.55 137.19-23.55L137.19-23.55Q142.49-23.55 145.06-20.63 147.64-17.7 147.64-12.4L147.64-12.4Q147.64-11.05 147.49-9.6L147.49-9.6 130.99-9.6Q131.54-6.55 133.16-5.2 134.79-3.85 137.69-3.85L137.69-3.85Q140.09-3.85 141.64-4.25 143.19-4.65 144.49-5.35L144.49-5.35 146.14-1.5Q144.89-0.7 142.74-0.1 140.59 0.5 137.54 0.5L137.54 0.5ZM130.99-13.35L142.39-13.35Q142.44-16.45 141.04-17.73 139.64-19 137.04-19L137.04-19Q131.79-19 130.99-13.35L130.99-13.35ZM161.19 0.5Q158.79 0.5 156.21-0.13 153.64-0.75 152.54-1.6L152.54-1.6 154.34-5.85Q157.34-3.75 161.19-3.75L161.19-3.75Q165.04-3.75 165.04-6L165.04-6Q165.04-7 164.24-7.55 163.44-8.1 161.39-8.85L161.39-8.85 159.49-9.55Q156.49-10.75 154.74-12.43 152.99-14.1 152.99-16.85L152.99-16.85Q152.99-20 155.46-21.78 157.94-23.55 162.09-23.55L162.09-23.55Q164.14-23.55 166.11-23.1 168.09-22.65 169.14-21.95L169.14-21.95 167.19-17.65Q166.54-18.3 165.11-18.78 163.69-19.25 161.94-19.25L161.94-19.25Q158.39-19.25 158.39-17.1L158.39-17.1Q158.39-15.9 159.34-15.28 160.29-14.65 162.44-13.9L162.44-13.9Q162.64-13.85 163.99-13.35L163.99-13.35Q167.19-12.1 168.74-10.5 170.29-8.9 170.29-6.4L170.29-6.4Q170.29-3 167.71-1.25 165.14 0.5 161.19 0.5L161.19 0.5ZM177.88 0L177.88-18.55 173.83-18.55 173.83-22.95 177.88-22.95 177.88-32.3 183.33-33.5 183.33-22.95 188.63-22.95 188.63-18.55 183.33-18.55 183.33 0 177.88 0Z" opacity="1" transform="matrix(1,0,0,1,0,0)" fill="#000000" class="wordmark-text-0" data-fill-palette-color="quaternary" id="text-0"></path></svg></g></svg></g></svg></g></svg></g><g></g></svg></g><defs></defs></svg><rect width="356.12052" height="103.24070694805195" fill="none" stroke="none" visibility="hidden"></rect></g></svg></g></svg>