<?xml version="1.0" encoding="iso-8859-1"?>
<!-- Uploaded to: SVG Repo, www.svgrepo.com, Generator: SVG Repo Mixer Tools -->
<svg fill="#000000" height="800px" width="800px" version="1.1" id="Layer_1" xmlns="http://www.w3.org/2000/svg" xmlns:xlink="http://www.w3.org/1999/xlink" 
	 viewBox="0 0 512 512" xml:space="preserve">
<g>
	<g>
		<path d="M469.333,42.667h-88.987C371.562,17.808,347.872,0,320,0s-51.562,17.808-60.346,42.667h-49.974
			C200.895,17.808,177.206,0,149.333,0S97.772,17.808,88.987,42.667h-46.32c-11.782,0-21.333,9.551-21.333,21.333v106.667v106.667
			V384v106.667c0,11.782,9.551,21.333,21.333,21.333h106.667H256h106.667h106.667c11.782,0,21.333-9.551,21.333-21.333V384V277.333
			V170.667V64C490.667,52.218,481.115,42.667,469.333,42.667z M234.667,192v64h-64v-64H234.667z M341.333,192v64h-64v-64H341.333z
			 M448,192v64h-64v-64H448z M128,256H64v-64h64V256z M64,298.667h64v64H64V298.667z M170.667,298.667h64v64h-64V298.667z
			 M277.333,298.667h64v64h-64V298.667z M384,298.667h64v64h-64V298.667z M64,85.333h42.667C118.449,85.333,128,75.782,128,64
			c0-11.791,9.542-21.333,21.333-21.333S170.667,52.209,170.667,64s-9.542,21.333-21.333,21.333
			c-11.782,0-21.333,9.551-21.333,21.333c0,11.782,9.551,21.333,21.333,21.333c27.872,0,51.562-17.808,60.346-42.667h67.654
			c11.782,0,21.333-9.551,21.333-21.333c0-11.791,9.542-21.333,21.333-21.333S341.333,52.209,341.333,64S331.791,85.333,320,85.333
			c-11.782,0-21.333,9.551-21.333,21.333c0,11.782,9.551,21.333,21.333,21.333c27.872,0,51.562-17.808,60.346-42.667H448v64h-85.333
			H256H149.333H64V85.333z M64,405.333h64v64H64V405.333z M170.667,405.333h64v64h-64V405.333z M277.333,405.333h64v64h-64V405.333z
			 M448,469.333h-64v-64h64V469.333z"/>
	</g>
</g>
</svg>