<?xml version="1.0" encoding="iso-8859-1"?>
<svg fill="#000000" version="1.1" id="Layer_1" xmlns="http://www.w3.org/2000/svg" xmlns:xlink="http://www.w3.org/1999/xlink" 
	 viewBox="0 0 512 512" xml:space="preserve">
<g>
	<g>
		<path d="M267.519,511.73c1.257-0.056,2.511-0.123,3.764-0.197c0.543-0.032,1.086-0.068,1.629-0.103
			c2.174-0.142,4.34-0.311,6.499-0.506c0.183-0.017,0.366-0.032,0.549-0.049c38.279-3.554,74.108-15.533,105.624-34.07
			c0.276-0.162,0.552-0.326,0.828-0.489c1.727-1.025,3.441-2.069,5.141-3.132c0.381-0.238,0.764-0.474,1.144-0.714
			c0.878-0.555,1.751-1.116,2.622-1.682c0.617-0.401,1.23-0.808,1.844-1.214c1.209-0.801,2.411-1.61,3.605-2.431
			c0.715-0.491,1.428-0.984,2.138-1.482c0.7-0.491,1.4-0.983,2.094-1.481c1.171-0.839,2.335-1.687,3.491-2.546
			c0.626-0.465,1.247-0.937,1.868-1.407c0.816-0.617,1.627-1.24,2.436-1.867c0.68-0.528,1.36-1.056,2.035-1.59
			c1.049-0.831,2.092-1.672,3.128-2.52c0.616-0.504,1.228-1.011,1.839-1.52c0.838-0.698,1.67-1.404,2.499-2.113
			c0.875-0.749,1.744-1.504,2.609-2.264c0.68-0.598,1.358-1.197,2.031-1.803c0.676-0.607,1.35-1.214,2.02-1.828
			c0.704-0.646,1.401-1.299,2.099-1.954c1.043-0.978,2.077-1.964,3.104-2.959c0.381-0.369,0.76-0.74,1.138-1.111
			C482.628,392.244,512,327.556,512,256C512,114.618,397.382,0,256,0S0,114.618,0,256c0,71.769,29.548,136.628,77.126,183.112
			c0.107,0.104,0.213,0.208,0.32,0.312c2.575,2.507,5.201,4.961,7.879,7.359c0.428,0.384,0.859,0.764,1.29,1.145
			c1.218,1.075,2.445,2.139,3.683,3.192c0.573,0.487,1.146,0.975,1.723,1.457c0.722,0.603,1.446,1.202,2.174,1.797
			c0.753,0.615,1.511,1.222,2.27,1.828c0.986,0.786,1.977,1.566,2.974,2.338c0.679,0.526,1.36,1.049,2.045,1.568
			c0.701,0.531,1.401,1.063,2.108,1.588c1.108,0.822,2.223,1.635,3.344,2.439c0.744,0.534,1.494,1.061,2.244,1.587
			c0.644,0.452,1.291,0.899,1.94,1.345c1.268,0.872,2.544,1.732,3.828,2.581c0.571,0.378,1.141,0.756,1.715,1.129
			c0.878,0.571,1.76,1.137,2.646,1.698c0.381,0.241,0.766,0.478,1.148,0.717c1.68,1.051,3.373,2.083,5.079,3.095
			c0.309,0.183,0.618,0.366,0.927,0.548c31.477,18.504,67.253,30.468,105.474,34.032c0.306,0.029,0.613,0.054,0.92,0.082
			c2.023,0.181,4.052,0.339,6.088,0.473c0.615,0.041,1.23,0.081,1.846,0.117c1.072,0.063,2.145,0.124,3.221,0.174
			c1.386,0.064,2.774,0.116,4.164,0.158c0.955,0.029,1.913,0.049,2.871,0.067c1.656,0.037,3.307,0.063,4.953,0.063
			c1.644,0,3.294-0.026,4.949-0.063c0.966-0.018,1.93-0.039,2.893-0.068C265.07,511.832,266.295,511.784,267.519,511.73z
			 M123.185,422.94c-1.419-1.131-2.825-2.281-4.216-3.449c-0.208-0.175-0.415-0.351-0.622-0.526
			c-1.385-1.172-2.758-2.361-4.114-3.569c-0.109-0.097-0.219-0.193-0.327-0.291c-10.7-9.572-20.491-20.267-29.188-31.973
			c7.39-36.712,40.009-63.143,79.756-63.143h6.193v42.677h-21.333C137.551,362.667,128,372.218,128,384v42.665
			c-1.491-1.12-2.969-2.257-4.431-3.417C123.44,423.147,123.314,423.042,123.185,422.94z M341.365,100.333
			c-14.386,10.478-37.221,10.355-74.383-12.018c-25.88-15.582-49.29-23.255-69.89-24.296c16.004-13.367,36.618-21.396,59.107-21.342
			c3.716,0.017,7.096,0.214,10.471,0.592C300.342,47.025,328.999,69.782,341.365,100.333z M165.672,117.361
			c0.653-0.777,2.198-2.351,4.643-4.12c14.702-10.636,37.7-10.626,74.66,11.628c41.292,24.859,76.166,29.787,103.293,19.734
			c-0.99,46.923-21.969,94.813-49.62,105.197c-12.642,4.764-21.321,16.651-21.321,30.403v5.205c0,13.701,8.474,27.353,21.34,32.467
			v44.792h-85.333v-44.788c12.869-5.111,21.327-18.768,21.327-32.471v-5.141c0-13.311-8.093-25.549-20.81-30.278
			c-27.703-10.247-49.804-64.313-49.804-115.364C164.047,128.722,164.609,122.953,165.672,117.361z M398.241,414.976
			c-0.228,0.204-0.458,0.407-0.687,0.61c-1.231,1.093-2.474,2.17-3.728,3.234c-0.305,0.259-0.61,0.518-0.917,0.775
			c-1.276,1.07-2.565,2.123-3.865,3.161c-0.229,0.183-0.456,0.37-0.686,0.552c-1.438,1.14-2.892,2.258-4.358,3.359V384
			c0-11.782-9.551-21.333-21.333-21.333h-21.333v-42.677h6.202c39.747,0,72.366,26.431,79.756,63.143
			C418.632,394.787,408.887,405.437,398.241,414.976z M227.234,467.177c-1.82-0.299-1.82-0.299-3.69-0.584
			c-6.071-0.943-11.491-1.962-16.528-3.14c-2.605-0.629-5.348-1.338-8.115-2.1c-5.243-1.457-10.499-3.153-15.721-5.07
			c-1.483-0.537-1.483-0.537-2.808-1.006c-2.262-0.8-3.194-1.142-4.184-1.544c-1.815-0.733-3.646-1.512-5.521-2.348v-46.051h170.667
			v46.052c-1.863,0.831-3.679,1.603-5.473,2.328c-1.038,0.422-1.969,0.764-4.232,1.564c-1.326,0.469-1.326,0.469-2.802,1.003
			c-5.228,1.919-10.485,3.615-15.777,5.086c-2.717,0.748-5.46,1.457-8.205,2.119c-4.897,1.146-10.317,2.164-16.574,3.135
			c-1.684,0.257-1.684,0.257-3.299,0.523c-2.241,0.368-3.195,0.512-4.156,0.622c-6.7,0.782-12.929,1.274-18.925,1.47
			c-1.961,0.054-3.926,0.087-5.897,0.087c-1.962,0-3.918-0.034-5.871-0.087c-5.998-0.196-12.223-0.687-18.894-1.465
			C230.223,467.655,229.269,467.511,227.234,467.177z M469.333,256c0,28.218-5.491,55.149-15.443,79.803
			c-21.701-35.471-61.253-58.48-106.355-58.48h-11.95c40.123-31.172,61.219-99.34,54.038-159.253
			c-1.491-12.429-4.722-24.359-9.437-35.539C434.162,121.241,469.333,184.512,469.333,256z M131.851,82.503
			c-6.744,16.031-10.471,33.639-10.471,52.121c0,56.077,20.198,114.577,55.497,142.699h-12.404
			c-45.106,0-84.66,23.012-106.36,58.488c-9.954-24.656-15.447-51.59-15.447-79.811C42.667,184.495,77.854,121.212,131.851,82.503z"
			/>
	</g>
</g>
</svg>