<?xml version="1.0" encoding="iso-8859-1"?>
<!-- Uploaded to: SVG Repo, www.svgrepo.com, Generator: SVG Repo Mixer Tools -->
<svg fill="#000000" height="800px" width="800px" version="1.1" id="Layer_1" xmlns="http://www.w3.org/2000/svg" xmlns:xlink="http://www.w3.org/1999/xlink" 
	 viewBox="0 0 512.005 512.005" xml:space="preserve">
<g>
	<g>
		<g>
			<path d="M256.005,213.337c35.355,0,64-28.645,64-64s-28.645-64-64-64s-64,28.645-64,64S220.65,213.337,256.005,213.337z
				 M256.005,128.003c11.791,0,21.333,9.542,21.333,21.333s-9.542,21.333-21.333,21.333s-21.333-9.542-21.333-21.333
				S244.214,128.003,256.005,128.003z"/>
			<path d="M195.842,322.873l41.714,71.842c8.223,14.162,28.675,14.162,36.898,0l41.643-71.723
				c13.512-23.296,26.449-41.339,56.405-80.36c1.341-1.747,1.341-1.747,2.037-2.653c19.852-25.846,30.8-57.42,30.8-90.643
				c0-89.032-77.35-158.521-166.786-148.343c-66.548,7.591-121.188,60.835-130.398,127.125
				c-6.222,44.682,7.435,88.049,36.485,120.52C161.898,267.925,176.744,289.928,195.842,322.873z M150.415,133.997
				c6.529-46.997,45.761-85.226,92.968-90.611c64.055-7.29,119.289,42.33,119.289,105.951c0,23.728-7.788,46.188-21.975,64.658
				c-0.699,0.91-0.699,0.91-1.394,1.816l-0.645,0.841c-31.067,40.468-44.731,59.526-59.464,84.926l-23.189,39.94l-23.257-40.055
				c-20.428-35.24-36.707-59.365-56.311-81.274C155.658,196.963,145.942,166.112,150.415,133.997z"/>
			<path d="M505.757,411.585c-8.331-8.331-21.839-8.331-30.17,0l-36.418,36.418H85.34c-0.703,0-1.406,0.037-2.107,0.106
				c-0.316,0.031-0.622,0.09-0.933,0.135c-0.377,0.054-0.755,0.098-1.13,0.172c-0.358,0.071-0.705,0.169-1.056,0.258
				c-0.323,0.081-0.648,0.152-0.968,0.249c-0.345,0.104-0.678,0.234-1.015,0.355c-0.319,0.115-0.641,0.22-0.956,0.35
				c-0.315,0.13-0.616,0.284-0.923,0.428c-0.324,0.153-0.651,0.297-0.969,0.467c-0.294,0.158-0.574,0.337-0.86,0.508
				c-0.311,0.186-0.626,0.362-0.93,0.565c-0.317,0.212-0.615,0.448-0.919,0.676c-0.252,0.189-0.512,0.364-0.757,0.566
				c-0.544,0.446-1.067,0.916-1.564,1.413L48.92,475.585c-8.331,8.331-8.331,21.839,0,30.17c8.331,8.331,21.839,8.331,30.17,0
				l15.085-15.085h353.83c0.007,0,0.015-0.001,0.022-0.001c0.695-0.001,1.39-0.037,2.083-0.105c0.318-0.031,0.627-0.091,0.94-0.136
				c0.375-0.054,0.75-0.098,1.122-0.171c0.359-0.071,0.708-0.17,1.061-0.259c0.322-0.081,0.645-0.151,0.964-0.248
				c0.346-0.105,0.68-0.234,1.018-0.356c0.318-0.114,0.639-0.219,0.953-0.349c0.316-0.131,0.618-0.284,0.926-0.43
				c0.323-0.152,0.649-0.296,0.966-0.465c0.295-0.158,0.576-0.338,0.863-0.51c0.31-0.185,0.624-0.361,0.927-0.563
				c0.317-0.212,0.615-0.448,0.92-0.676c0.252-0.189,0.511-0.364,0.757-0.566c0.544-0.446,1.067-0.916,1.564-1.413l42.667-42.667
				C514.088,433.424,514.088,419.916,505.757,411.585z"/>
			<path d="M362.663,320.003c-11.782,0-21.333,9.551-21.333,21.333c0,11.782,9.551,21.333,21.333,21.333h42.667
				c0.002,0,0.003,0,0.005,0c0.705,0,1.41-0.037,2.113-0.107c0.264-0.026,0.519-0.077,0.78-0.112
				c0.432-0.059,0.864-0.112,1.293-0.197c0.298-0.059,0.585-0.143,0.878-0.215c0.386-0.094,0.774-0.181,1.155-0.297
				c0.272-0.083,0.534-0.187,0.802-0.281c0.394-0.137,0.79-0.27,1.177-0.431c0.225-0.094,0.44-0.205,0.661-0.307
				c0.416-0.19,0.832-0.378,1.237-0.596c0.175-0.094,0.339-0.203,0.511-0.302c0.433-0.248,0.864-0.498,1.282-0.779
				c0.127-0.086,0.245-0.184,0.37-0.272c0.99-0.697,1.944-1.468,2.829-2.353l21.333-21.333c8.331-8.331,8.331-21.839,0-30.17
				c-8.331-8.331-21.839-8.331-30.17,0l-15.085,15.085H362.663z"/>
			<path d="M57.757,377.755l15.085-15.085h76.497c11.782,0,21.333-9.551,21.333-21.333c0-11.782-9.551-21.333-21.333-21.333H64.005
				c-0.703,0-1.405,0.037-2.105,0.106c-0.318,0.031-0.627,0.091-0.941,0.136c-0.375,0.054-0.75,0.097-1.122,0.171
				c-0.359,0.071-0.708,0.17-1.061,0.259c-0.322,0.081-0.645,0.152-0.964,0.248c-0.346,0.105-0.68,0.234-1.018,0.356
				c-0.318,0.114-0.639,0.219-0.953,0.349c-0.315,0.131-0.618,0.284-0.925,0.43c-0.324,0.153-0.65,0.296-0.967,0.466
				c-0.295,0.158-0.575,0.338-0.861,0.509c-0.311,0.185-0.625,0.361-0.928,0.564c-0.316,0.212-0.614,0.447-0.918,0.675
				c-0.253,0.19-0.513,0.365-0.759,0.567c-0.54,0.443-1.059,0.91-1.552,1.403c-0.004,0.004-0.008,0.006-0.011,0.01l-21.333,21.333
				c-8.331,8.331-8.331,21.839,0,30.17S49.426,386.086,57.757,377.755z"/>
			<path d="M417.849,384.003h-12.843c-11.797,0-21.333,9.536-21.333,21.333c0,11.797,9.536,21.333,21.333,21.333h21.675
				c5.653,0,11.072-2.24,15.083-6.251l29.931-29.931c8.341-8.341,8.341-21.845,0-30.165c-8.341-8.341-21.824-8.341-30.165,0
				L417.849,384.003z"/>
			<path d="M319.673,384.003c-11.797,0-21.333,9.536-21.333,21.333c0,11.797,9.536,21.333,21.333,21.333h21.333
				c11.797,0,21.333-9.536,21.333-21.333c0-11.797-9.536-21.333-21.333-21.333H319.673z"/>
			<path d="M51.504,417.84c-8.341-8.341-21.824-8.341-30.165,0L6.256,432.923c-8.341,8.341-8.341,21.824,0,30.165
				c4.16,4.16,9.621,6.251,15.083,6.251c5.461,0,10.923-2.091,15.083-6.251l15.083-15.083
				C59.845,439.664,59.845,426.182,51.504,417.84z"/>
			<path d="M89.008,384.006c-11.797,0-21.333,9.536-21.333,21.333c0,11.797,9.536,21.333,21.333,21.333h60.331
				c11.797,0,21.333-9.536,21.333-21.333c0-11.797-9.536-21.333-21.333-21.333H89.008z"/>
		</g>
	</g>
</g>
</svg>