<?xml version="1.0" encoding="iso-8859-1"?>
<svg fill="#fff" version="1.1" id="Layer_1" xmlns="http://www.w3.org/2000/svg" xmlns:xlink="http://www.w3.org/1999/xlink" 
	 viewBox="0 0 512 512" xml:space="preserve">
<g>
	<g>
		<g>
			<path d="M71.845,214.652c-34.449,6.019-62.442,33.822-68.719,68.216c-3.978,21.908,0.432,43.576,11.964,61.57l0.433,0.676
				l0.44,0.687c9.211,14.364,12.976,20.811,16.385,28.755l35.068,81.846c7.387,17.242,31.83,17.242,39.218,0.001l35.179-82.091
				c3.924-9.144,8.989-18.107,15.137-26.874c9.964-14.213,15.409-31.098,15.409-48.772
				C172.358,245.784,124.821,205.427,71.845,214.652z M122.015,322.943c-7.786,11.102-14.295,22.62-19.416,34.553l-15.573,36.339
				l-15.464-36.093c-4.644-10.824-9.211-18.642-19.681-34.971l-0.439-0.685l-0.429-0.669c-5.757-8.983-7.942-19.717-5.91-30.907
				c3.067-16.805,17.244-30.886,34.073-33.826c26.772-4.662,50.515,15.496,50.515,41.982
				C129.691,307.482,126.997,315.836,122.015,322.943z"/>
			<path d="M151.024,469.333h-21.333c-11.797,0-21.333,9.557-21.333,21.333S117.894,512,129.691,512h21.333
				c11.797,0,21.333-9.557,21.333-21.333S162.822,469.333,151.024,469.333z"/>
			<path d="M254.775,469.333h-41.493c-11.797,0-21.333,9.557-21.333,21.333S201.484,512,213.282,512h41.493
				c11.797,0,21.333-9.557,21.333-21.333S266.572,469.333,254.775,469.333z"/>
			<path d="M358.519,469.333h-41.493c-11.797,0-21.333,9.557-21.333,21.333S305.228,512,317.026,512h41.493
				c11.797,0,21.333-9.557,21.333-21.333S370.316,469.333,358.519,469.333z"/>
			<path d="M250.581,341.907c1.173,0,2.347-0.085,3.52-0.299c1.173-0.192,2.709-0.213,3.584-0.277h34.389
				c11.776,0,21.333-9.557,21.333-21.333s-9.557-21.333-21.333-21.333H257.77c-2.624-0.107-7.168,0.277-10.667,0.875
				c-11.627,1.92-19.477,12.928-17.536,24.533C231.295,334.504,240.341,341.907,250.581,341.907z"/>
			<path d="M354.325,298.664c-11.797,0-21.333,9.557-21.333,21.333s9.536,21.333,21.333,21.333h41.493
				c11.797,0,21.333-9.557,21.333-21.333s-9.536-21.333-21.333-21.333H354.325z"/>
			<path d="M497.343,274.409c-10.795-4.587-23.381,0.427-28.011,11.264c-2.773,6.507-8.555,11.221-15.445,12.587
				c-11.563,2.283-19.093,13.504-16.811,25.067c2.005,10.155,10.923,17.195,20.907,17.195c1.365,0,2.752-0.128,4.139-0.405
				c20.779-4.096,38.144-18.197,46.464-37.717C513.215,291.582,508.181,279.038,497.343,274.409z"/>
			<path d="M224.554,417.406c3.456,2.112,7.253,3.115,11.029,3.115c7.211,0,14.251-3.669,18.261-10.283
				c6.123-10.069,2.901-23.189-7.168-29.291c-6.059-3.691-9.899-10.091-10.304-17.131c-0.619-11.755-11.093-20.885-22.443-20.139
				c-11.755,0.64-20.779,10.688-20.139,22.464C194.943,387.262,206.442,406.419,224.554,417.406z"/>
			<path d="M382.165,403.71c-8.832,7.808-9.664,21.291-1.856,30.123c3.456,3.925,5.376,8.939,5.376,14.165
				c0,1.771-0.213,3.541-0.661,5.291c-2.837,11.435,4.117,23.019,15.552,25.856c1.749,0.448,3.477,0.64,5.184,0.64
				c9.557,0,18.261-6.485,20.672-16.171c1.28-5.141,1.92-10.389,1.92-15.616c0-15.637-5.696-30.699-16.085-42.432
				C404.479,396.755,391.018,395.902,382.165,403.71z"/>
			<path d="M338.218,426.664c11.776,0,21.333-9.557,21.333-21.333s-9.557-21.333-21.333-21.333h-41.515
				c-11.776,0-21.333,9.557-21.333,21.333s9.557,21.333,21.333,21.333H338.218z"/>
			<path d="M459.952,258.615c3.243,1.771,6.763,2.624,10.219,2.624c7.552,0,14.848-3.989,18.731-11.093
				c5.675-10.325,1.877-23.296-8.469-28.949c-9.387-5.141-20.011-7.872-30.741-7.872c-11.797,0-21.333,9.557-21.333,21.333
				c0,11.797,9.536,21.333,21.333,21.333C453.318,255.991,456.774,256.866,459.952,258.615z"/>
			<path d="M292.856,131.781l0.44,0.687c9.211,14.364,12.976,20.811,16.385,28.755l35.068,81.846
				c7.387,17.242,31.829,17.242,39.218,0.001l35.179-82.091c3.924-9.144,8.989-18.107,15.137-26.874
				c9.964-14.213,15.409-31.098,15.409-48.772c0-52.882-47.536-93.24-100.513-84.014c-34.438,6.017-62.41,33.808-68.716,68.199
				c-4.002,21.89,0.413,43.538,11.952,61.574L292.856,131.781z M322.431,77.202c3.086-16.834,17.256-30.912,34.078-33.851
				c26.772-4.662,50.515,15.496,50.515,41.982c0,8.815-2.694,17.169-7.677,24.277c-7.786,11.102-14.295,22.62-19.416,34.553
				l-15.573,36.339l-15.464-36.093c-4.644-10.824-9.211-18.642-19.681-34.971l-0.439-0.685l-0.429-0.668
				C322.576,99.065,320.392,88.357,322.431,77.202z"/>
		</g>
	</g>
</g>
</svg>